<svg id="Layer_1" data-name="Layer 1" xmlns="http://www.w3.org/2000/svg" viewBox="0 0 1190 240"><defs><style>.cls-1{fill:#fff;}</style></defs><title>graphic-placeholder</title><path class="cls-1" d="M55.68,67.5h40c23.38,0,37.52,13.86,37.52,33.88v0.28c0,22.68-17.64,34.44-39.62,34.44H77.24v29.4H55.68v-98Zm38.64,49.42c10.78,0,17.08-6.44,17.08-14.84V101.8c0-9.66-6.72-14.84-17.5-14.84H77.24v30H94.32Z"/><path class="cls-1" d="M149.2,67.5h21.56v78.4h48.86v19.6H149.2v-98Z"/><path class="cls-1" d="M269.46,66.8h19.88l42,98.7H308.8l-9-22H258.4l-9,22h-22Zm22.68,57.68-13-31.78-13,31.78h26Z"/><path class="cls-1" d="M335.82,116.78V116.5c0-27.86,21-50.68,51.1-50.68,18.48,0,29.54,6.16,38.64,15.12L411.84,96.76c-7.56-6.86-15.26-11.06-25.06-11.06-16.52,0-28.42,13.72-28.42,30.52v0.28c0,16.8,11.62,30.8,28.42,30.8,11.2,0,18.06-4.48,25.76-11.48l13.72,13.86c-10.08,10.78-21.28,17.5-40.18,17.5C357.24,167.18,335.82,144.92,335.82,116.78Z"/><path class="cls-1" d="M443.48,67.5H517.4V86.68H464.9v19.88h46.2v19.18H464.9v20.58h53.2V165.5H443.48v-98Z"/><path class="cls-1" d="M537.28,67.5h21.56v38.78H598.6V67.5h21.56v98H598.6V126.16H558.84V165.5H537.28v-98Z"/><path class="cls-1" d="M639.34,116.78V116.5c0-27.86,22-50.68,52.22-50.68s51.94,22.54,51.94,50.4v0.28c0,27.86-22,50.68-52.22,50.68S639.34,144.64,639.34,116.78Zm81.62,0V116.5c0-16.8-12.32-30.8-29.68-30.8s-29.4,13.72-29.4,30.52v0.28c0,16.8,12.32,30.8,29.68,30.8S721,133.58,721,116.78Z"/><path class="cls-1" d="M762.68,67.5h21.56v78.4H833.1v19.6H762.68v-98Z"/><path class="cls-1" d="M849.34,67.5h38.22c30.8,0,52.08,21.14,52.08,48.72v0.28c0,27.58-21.28,49-52.08,49H849.34v-98ZM887.56,146c17.64,0,29.54-11.9,29.54-29.26V116.5C917.1,99.14,905.2,87,887.56,87H870.9V146h16.66Z"/><path class="cls-1" d="M958.82,67.5h73.92V86.68h-52.5v19.88h46.2v19.18h-46.2v20.58h53.2V165.5H958.82v-98Z"/><path class="cls-1" d="M1052.62,67.5h44.8c12.46,0,22.12,3.5,28.56,9.94,5.46,5.46,8.4,13.16,8.4,22.4v0.28c0,15.82-8.54,25.76-21,30.38l23.94,35h-25.2l-21-31.36h-16.94V165.5h-21.56v-98Zm43.4,47.6c10.5,0,16.52-5.6,16.52-13.86V101c0-9.24-6.44-14-16.94-14h-21.42V115.1H1096Z"/><path class="cls-1" d="M1164,26V214H26V26H1164m26-26H0V240H1190V0h0Z"/></svg>